<mxfile host="app.diagrams.net" agent="Mozilla/5.0 (Macintosh; Intel Mac OS X 10_15_7) AppleWebKit/605.1.15 (KHTML, like Gecko) Version/18.3.1 Safari/605.1.15" version="26.2.14">
  <diagram name="Page-1" id="2YBvvXClWsGukQMizWep">
    <mxGraphModel dx="935" dy="587" grid="1" gridSize="10" guides="1" tooltips="1" connect="1" arrows="1" fold="1" page="1" pageScale="1" pageWidth="850" pageHeight="1100" math="0" shadow="0">
      <root>
        <mxCell id="0" />
        <mxCell id="1" parent="0" />
        <mxCell id="phvnPfN1lv3uOy2Ebowl-1" value="frame" style="shape=umlFrame;whiteSpace=wrap;html=1;pointerEvents=0;" parent="1" vertex="1">
          <mxGeometry x="80" y="60" width="910" height="372.5" as="geometry" />
        </mxCell>
        <mxCell id="phvnPfN1lv3uOy2Ebowl-3" value="CEO" style="shape=umlLifeline;perimeter=lifelinePerimeter;whiteSpace=wrap;html=1;container=1;dropTarget=0;collapsible=0;recursiveResize=0;outlineConnect=0;portConstraint=eastwest;newEdgeStyle={&quot;curved&quot;:0,&quot;rounded&quot;:0};participant=umlActor;size=50;" parent="1" vertex="1">
          <mxGeometry x="120" y="110" width="20" height="290" as="geometry" />
        </mxCell>
        <mxCell id="phvnPfN1lv3uOy2Ebowl-4" value=":CeoWindow" style="shape=umlLifeline;perimeter=lifelinePerimeter;whiteSpace=wrap;html=1;container=1;dropTarget=0;collapsible=0;recursiveResize=0;outlineConnect=0;portConstraint=eastwest;newEdgeStyle={&quot;curved&quot;:0,&quot;rounded&quot;:0};" parent="1" vertex="1">
          <mxGeometry x="260" y="120" width="100" height="280" as="geometry" />
        </mxCell>
        <mxCell id="phvnPfN1lv3uOy2Ebowl-18" value="" style="html=1;points=[[0,0,0,0,5],[0,1,0,0,-5],[1,0,0,0,5],[1,1,0,0,-5]];perimeter=orthogonalPerimeter;outlineConnect=0;targetShapes=umlLifeline;portConstraint=eastwest;newEdgeStyle={&quot;curved&quot;:0,&quot;rounded&quot;:0};" parent="phvnPfN1lv3uOy2Ebowl-4" vertex="1">
          <mxGeometry x="45" y="80" width="10" height="20" as="geometry" />
        </mxCell>
        <mxCell id="phvnPfN1lv3uOy2Ebowl-20" value="" style="html=1;points=[[0,0,0,0,5],[0,1,0,0,-5],[1,0,0,0,5],[1,1,0,0,-5]];perimeter=orthogonalPerimeter;outlineConnect=0;targetShapes=umlLifeline;portConstraint=eastwest;newEdgeStyle={&quot;curved&quot;:0,&quot;rounded&quot;:0};" parent="phvnPfN1lv3uOy2Ebowl-4" vertex="1">
          <mxGeometry x="45" y="110" width="10" height="20" as="geometry" />
        </mxCell>
        <mxCell id="phvnPfN1lv3uOy2Ebowl-24" value="" style="html=1;points=[[0,0,0,0,5],[0,1,0,0,-5],[1,0,0,0,5],[1,1,0,0,-5]];perimeter=orthogonalPerimeter;outlineConnect=0;targetShapes=umlLifeline;portConstraint=eastwest;newEdgeStyle={&quot;curved&quot;:0,&quot;rounded&quot;:0};" parent="phvnPfN1lv3uOy2Ebowl-4" vertex="1">
          <mxGeometry x="45" y="140" width="10" height="20" as="geometry" />
        </mxCell>
        <mxCell id="phvnPfN1lv3uOy2Ebowl-26" value="" style="html=1;points=[[0,0,0,0,5],[0,1,0,0,-5],[1,0,0,0,5],[1,1,0,0,-5]];perimeter=orthogonalPerimeter;outlineConnect=0;targetShapes=umlLifeline;portConstraint=eastwest;newEdgeStyle={&quot;curved&quot;:0,&quot;rounded&quot;:0};" parent="phvnPfN1lv3uOy2Ebowl-4" vertex="1">
          <mxGeometry x="45" y="180" width="10" height="60" as="geometry" />
        </mxCell>
        <mxCell id="phvnPfN1lv3uOy2Ebowl-5" value=":CeoControl" style="shape=umlLifeline;perimeter=lifelinePerimeter;whiteSpace=wrap;html=1;container=1;dropTarget=0;collapsible=0;recursiveResize=0;outlineConnect=0;portConstraint=eastwest;newEdgeStyle={&quot;curved&quot;:0,&quot;rounded&quot;:0};" parent="1" vertex="1">
          <mxGeometry x="400" y="120" width="100" height="270" as="geometry" />
        </mxCell>
        <mxCell id="phvnPfN1lv3uOy2Ebowl-28" value="" style="html=1;points=[[0,0,0,0,5],[0,1,0,0,-5],[1,0,0,0,5],[1,1,0,0,-5]];perimeter=orthogonalPerimeter;outlineConnect=0;targetShapes=umlLifeline;portConstraint=eastwest;newEdgeStyle={&quot;curved&quot;:0,&quot;rounded&quot;:0};" parent="phvnPfN1lv3uOy2Ebowl-5" vertex="1">
          <mxGeometry x="45" y="195" width="10" height="35" as="geometry" />
        </mxCell>
        <mxCell id="phvnPfN1lv3uOy2Ebowl-6" value=":Service" style="shape=umlLifeline;perimeter=lifelinePerimeter;whiteSpace=wrap;html=1;container=1;dropTarget=0;collapsible=0;recursiveResize=0;outlineConnect=0;portConstraint=eastwest;newEdgeStyle={&quot;curved&quot;:0,&quot;rounded&quot;:0};" parent="1" vertex="1">
          <mxGeometry x="650" y="115" width="100" height="265" as="geometry" />
        </mxCell>
        <mxCell id="phvnPfN1lv3uOy2Ebowl-30" value="" style="html=1;points=[[0,0,0,0,5],[0,1,0,0,-5],[1,0,0,0,5],[1,1,0,0,-5]];perimeter=orthogonalPerimeter;outlineConnect=0;targetShapes=umlLifeline;portConstraint=eastwest;newEdgeStyle={&quot;curved&quot;:0,&quot;rounded&quot;:0};" parent="phvnPfN1lv3uOy2Ebowl-6" vertex="1">
          <mxGeometry x="45.07" y="205" width="10" height="25" as="geometry" />
        </mxCell>
        <mxCell id="phvnPfN1lv3uOy2Ebowl-19" value="1: name = typeName()" style="html=1;verticalAlign=bottom;startArrow=oval;endArrow=block;startSize=8;curved=0;rounded=0;entryX=0;entryY=0;entryDx=0;entryDy=5;" parent="1" source="phvnPfN1lv3uOy2Ebowl-3" target="phvnPfN1lv3uOy2Ebowl-18" edge="1">
          <mxGeometry relative="1" as="geometry">
            <mxPoint x="215" y="205" as="sourcePoint" />
          </mxGeometry>
        </mxCell>
        <mxCell id="phvnPfN1lv3uOy2Ebowl-21" value="2: username = typeUsername()" style="html=1;verticalAlign=bottom;startArrow=oval;endArrow=block;startSize=8;curved=0;rounded=0;entryX=0;entryY=0;entryDx=0;entryDy=5;" parent="1" source="phvnPfN1lv3uOy2Ebowl-3" target="phvnPfN1lv3uOy2Ebowl-20" edge="1">
          <mxGeometry relative="1" as="geometry">
            <mxPoint x="149.92857142857144" y="235" as="sourcePoint" />
          </mxGeometry>
        </mxCell>
        <mxCell id="phvnPfN1lv3uOy2Ebowl-25" value="3: password = typePassword()" style="html=1;verticalAlign=bottom;startArrow=oval;endArrow=block;startSize=8;curved=0;rounded=0;entryX=0;entryY=0;entryDx=0;entryDy=5;" parent="1" source="phvnPfN1lv3uOy2Ebowl-3" target="phvnPfN1lv3uOy2Ebowl-24" edge="1">
          <mxGeometry relative="1" as="geometry">
            <mxPoint x="235" y="275" as="sourcePoint" />
          </mxGeometry>
        </mxCell>
        <mxCell id="phvnPfN1lv3uOy2Ebowl-27" value="4: onRegisterButtonClick()" style="html=1;verticalAlign=bottom;startArrow=oval;endArrow=block;startSize=8;curved=0;rounded=0;entryX=0;entryY=0;entryDx=0;entryDy=5;" parent="1" target="phvnPfN1lv3uOy2Ebowl-26" edge="1">
          <mxGeometry relative="1" as="geometry">
            <mxPoint x="129.92857142857144" y="305" as="sourcePoint" />
          </mxGeometry>
        </mxCell>
        <mxCell id="phvnPfN1lv3uOy2Ebowl-29" value="5: registerEmployee()" style="html=1;verticalAlign=bottom;startArrow=oval;endArrow=block;startSize=8;curved=0;rounded=0;entryX=0;entryY=0;entryDx=0;entryDy=5;" parent="1" source="phvnPfN1lv3uOy2Ebowl-4" target="phvnPfN1lv3uOy2Ebowl-28" edge="1">
          <mxGeometry relative="1" as="geometry">
            <mxPoint x="375" y="320" as="sourcePoint" />
          </mxGeometry>
        </mxCell>
        <mxCell id="phvnPfN1lv3uOy2Ebowl-31" value="6: saveEmployee(name, username,password)" style="html=1;verticalAlign=bottom;startArrow=oval;endArrow=block;startSize=8;curved=0;rounded=0;entryX=0;entryY=0;entryDx=0;entryDy=5;" parent="1" source="phvnPfN1lv3uOy2Ebowl-28" target="phvnPfN1lv3uOy2Ebowl-30" edge="1">
          <mxGeometry relative="1" as="geometry">
            <mxPoint x="449.9985714285713" y="330" as="sourcePoint" />
          </mxGeometry>
        </mxCell>
        <mxCell id="UtO_LqcCBoEkJ292XgPF-1" value=":EmployeeRepo" style="shape=umlLifeline;perimeter=lifelinePerimeter;whiteSpace=wrap;html=1;container=1;dropTarget=0;collapsible=0;recursiveResize=0;outlineConnect=0;portConstraint=eastwest;newEdgeStyle={&quot;curved&quot;:0,&quot;rounded&quot;:0};" vertex="1" parent="1">
          <mxGeometry x="790" y="115" width="100" height="265" as="geometry" />
        </mxCell>
        <mxCell id="UtO_LqcCBoEkJ292XgPF-3" value="" style="html=1;points=[[0,0,0,0,5],[0,1,0,0,-5],[1,0,0,0,5],[1,1,0,0,-5]];perimeter=orthogonalPerimeter;outlineConnect=0;targetShapes=umlLifeline;portConstraint=eastwest;newEdgeStyle={&quot;curved&quot;:0,&quot;rounded&quot;:0};" vertex="1" parent="UtO_LqcCBoEkJ292XgPF-1">
          <mxGeometry x="45" y="220" width="10" height="22" as="geometry" />
        </mxCell>
        <mxCell id="UtO_LqcCBoEkJ292XgPF-4" value="7: save(employee)" style="html=1;verticalAlign=bottom;startArrow=oval;endArrow=block;startSize=8;curved=0;rounded=0;entryX=0;entryY=0;entryDx=0;entryDy=5;" edge="1" target="UtO_LqcCBoEkJ292XgPF-3" parent="1" source="phvnPfN1lv3uOy2Ebowl-30">
          <mxGeometry relative="1" as="geometry">
            <mxPoint x="915" y="133" as="sourcePoint" />
          </mxGeometry>
        </mxCell>
        <mxCell id="UtO_LqcCBoEkJ292XgPF-6" value="DBMS" style="shape=umlLifeline;perimeter=lifelinePerimeter;whiteSpace=wrap;html=1;container=1;dropTarget=0;collapsible=0;recursiveResize=0;outlineConnect=0;portConstraint=eastwest;newEdgeStyle={&quot;curved&quot;:0,&quot;rounded&quot;:0};participant=umlActor;" vertex="1" parent="1">
          <mxGeometry x="930" y="117" width="20" height="263" as="geometry" />
        </mxCell>
        <mxCell id="UtO_LqcCBoEkJ292XgPF-9" style="edgeStyle=orthogonalEdgeStyle;rounded=0;orthogonalLoop=1;jettySize=auto;html=1;curved=0;exitX=0;exitY=0;exitDx=0;exitDy=5;exitPerimeter=0;" edge="1" parent="UtO_LqcCBoEkJ292XgPF-6" source="UtO_LqcCBoEkJ292XgPF-7">
          <mxGeometry relative="1" as="geometry">
            <mxPoint x="9.793103448275815" y="228.0344827586207" as="targetPoint" />
          </mxGeometry>
        </mxCell>
        <mxCell id="UtO_LqcCBoEkJ292XgPF-7" value="" style="html=1;points=[[0,0,0,0,5],[0,1,0,0,-5],[1,0,0,0,5],[1,1,0,0,-5]];perimeter=orthogonalPerimeter;outlineConnect=0;targetShapes=umlLifeline;portConstraint=eastwest;newEdgeStyle={&quot;curved&quot;:0,&quot;rounded&quot;:0};" vertex="1" parent="UtO_LqcCBoEkJ292XgPF-6">
          <mxGeometry x="10" y="223" width="10" height="17" as="geometry" />
        </mxCell>
        <mxCell id="UtO_LqcCBoEkJ292XgPF-8" value="8: INSERT SQL" style="html=1;verticalAlign=bottom;startArrow=oval;endArrow=block;startSize=8;curved=0;rounded=0;entryX=0;entryY=0;entryDx=0;entryDy=5;" edge="1" target="UtO_LqcCBoEkJ292XgPF-7" parent="1" source="UtO_LqcCBoEkJ292XgPF-3">
          <mxGeometry relative="1" as="geometry">
            <mxPoint x="885" y="298" as="sourcePoint" />
          </mxGeometry>
        </mxCell>
      </root>
    </mxGraphModel>
  </diagram>
</mxfile>
